G04 #@! TF.GenerationSoftware,KiCad,Pcbnew,5.1.5-52549c5~86~ubuntu18.04.1*
G04 #@! TF.CreationDate,2020-07-25T13:33:00-05:00*
G04 #@! TF.ProjectId,noname,6e6f6e61-6d65-42e6-9b69-6361645f7063,rev?*
G04 #@! TF.SameCoordinates,Original*
G04 #@! TF.FileFunction,Legend,Top*
G04 #@! TF.FilePolarity,Positive*
%FSLAX46Y46*%
G04 Gerber Fmt 4.6, Leading zero omitted, Abs format (unit mm)*
G04 Created by KiCad (PCBNEW 5.1.5-52549c5~86~ubuntu18.04.1) date 2020-07-25 13:33:00*
%MOMM*%
%LPD*%
G04 APERTURE LIST*
%ADD10C,0.150000*%
%ADD11C,0.120000*%
%ADD12C,1.802000*%
%ADD13O,1.802000X1.802000*%
%ADD14R,2.502000X2.502000*%
%ADD15C,2.502000*%
%ADD16C,3.102000*%
%ADD17C,2.742000*%
%ADD18C,2.102000*%
G04 APERTURE END LIST*
D10*
X184916428Y-95345000D02*
X184916428Y-94945000D01*
X185516428Y-95345000D01*
X185516428Y-94945000D01*
X184945000Y-92573571D02*
X184916428Y-92630714D01*
X184916428Y-92716428D01*
X184945000Y-92802142D01*
X185002142Y-92859285D01*
X185059285Y-92887857D01*
X185173571Y-92916428D01*
X185259285Y-92916428D01*
X185373571Y-92887857D01*
X185430714Y-92859285D01*
X185487857Y-92802142D01*
X185516428Y-92716428D01*
X185516428Y-92659285D01*
X185487857Y-92573571D01*
X185459285Y-92545000D01*
X185259285Y-92545000D01*
X185259285Y-92659285D01*
X185516428Y-92287857D02*
X184916428Y-92287857D01*
X185516428Y-91945000D01*
X184916428Y-91945000D01*
X185516428Y-91659285D02*
X184916428Y-91659285D01*
X184916428Y-91516428D01*
X184945000Y-91430714D01*
X185002142Y-91373571D01*
X185059285Y-91345000D01*
X185173571Y-91316428D01*
X185259285Y-91316428D01*
X185373571Y-91345000D01*
X185430714Y-91373571D01*
X185487857Y-91430714D01*
X185516428Y-91516428D01*
X185516428Y-91659285D01*
X184916428Y-89316428D02*
X185516428Y-89116428D01*
X184916428Y-88916428D01*
X185459285Y-88373571D02*
X185487857Y-88402142D01*
X185516428Y-88487857D01*
X185516428Y-88545000D01*
X185487857Y-88630714D01*
X185430714Y-88687857D01*
X185373571Y-88716428D01*
X185259285Y-88745000D01*
X185173571Y-88745000D01*
X185059285Y-88716428D01*
X185002142Y-88687857D01*
X184945000Y-88630714D01*
X184916428Y-88545000D01*
X184916428Y-88487857D01*
X184945000Y-88402142D01*
X184973571Y-88373571D01*
X185459285Y-87773571D02*
X185487857Y-87802142D01*
X185516428Y-87887857D01*
X185516428Y-87945000D01*
X185487857Y-88030714D01*
X185430714Y-88087857D01*
X185373571Y-88116428D01*
X185259285Y-88145000D01*
X185173571Y-88145000D01*
X185059285Y-88116428D01*
X185002142Y-88087857D01*
X184945000Y-88030714D01*
X184916428Y-87945000D01*
X184916428Y-87887857D01*
X184945000Y-87802142D01*
X184973571Y-87773571D01*
X184916428Y-120785000D02*
X185516428Y-120642142D01*
X185087857Y-120527857D01*
X185516428Y-120413571D01*
X184916428Y-120270714D01*
X184916428Y-116899285D02*
X185516428Y-116499285D01*
X184916428Y-116499285D02*
X185516428Y-116899285D01*
X185230714Y-112956428D02*
X185516428Y-112956428D01*
X184916428Y-113156428D02*
X185230714Y-112956428D01*
X184916428Y-112756428D01*
X123762142Y-103047380D02*
X123428809Y-102571190D01*
X123190714Y-103047380D02*
X123190714Y-102047380D01*
X123571666Y-102047380D01*
X123666904Y-102095000D01*
X123714523Y-102142619D01*
X123762142Y-102237857D01*
X123762142Y-102380714D01*
X123714523Y-102475952D01*
X123666904Y-102523571D01*
X123571666Y-102571190D01*
X123190714Y-102571190D01*
X124143095Y-102761666D02*
X124619285Y-102761666D01*
X124047857Y-103047380D02*
X124381190Y-102047380D01*
X124714523Y-103047380D01*
X125047857Y-103047380D02*
X125047857Y-102047380D01*
X125619285Y-103047380D02*
X125190714Y-102475952D01*
X125619285Y-102047380D02*
X125047857Y-102618809D01*
X126476428Y-102380714D02*
X126476428Y-103047380D01*
X126238333Y-101999761D02*
X126000238Y-102714047D01*
X126619285Y-102714047D01*
X126952619Y-102142619D02*
X127000238Y-102095000D01*
X127095476Y-102047380D01*
X127333571Y-102047380D01*
X127428809Y-102095000D01*
X127476428Y-102142619D01*
X127524047Y-102237857D01*
X127524047Y-102333095D01*
X127476428Y-102475952D01*
X126905000Y-103047380D01*
X127524047Y-103047380D01*
X128143095Y-102047380D02*
X128238333Y-102047380D01*
X128333571Y-102095000D01*
X128381190Y-102142619D01*
X128428809Y-102237857D01*
X128476428Y-102428333D01*
X128476428Y-102666428D01*
X128428809Y-102856904D01*
X128381190Y-102952142D01*
X128333571Y-102999761D01*
X128238333Y-103047380D01*
X128143095Y-103047380D01*
X128047857Y-102999761D01*
X128000238Y-102952142D01*
X127952619Y-102856904D01*
X127905000Y-102666428D01*
X127905000Y-102428333D01*
X127952619Y-102237857D01*
X128000238Y-102142619D01*
X128047857Y-102095000D01*
X128143095Y-102047380D01*
X129095476Y-102047380D02*
X129190714Y-102047380D01*
X129285952Y-102095000D01*
X129333571Y-102142619D01*
X129381190Y-102237857D01*
X129428809Y-102428333D01*
X129428809Y-102666428D01*
X129381190Y-102856904D01*
X129333571Y-102952142D01*
X129285952Y-102999761D01*
X129190714Y-103047380D01*
X129095476Y-103047380D01*
X129000238Y-102999761D01*
X128952619Y-102952142D01*
X128905000Y-102856904D01*
X128857380Y-102666428D01*
X128857380Y-102428333D01*
X128905000Y-102237857D01*
X128952619Y-102142619D01*
X129000238Y-102095000D01*
X129095476Y-102047380D01*
X131095476Y-103047380D02*
X130619285Y-103047380D01*
X130619285Y-102047380D01*
X131619285Y-102047380D02*
X131809761Y-102047380D01*
X131905000Y-102095000D01*
X132000238Y-102190238D01*
X132047857Y-102380714D01*
X132047857Y-102714047D01*
X132000238Y-102904523D01*
X131905000Y-102999761D01*
X131809761Y-103047380D01*
X131619285Y-103047380D01*
X131524047Y-102999761D01*
X131428809Y-102904523D01*
X131381190Y-102714047D01*
X131381190Y-102380714D01*
X131428809Y-102190238D01*
X131524047Y-102095000D01*
X131619285Y-102047380D01*
X133047857Y-103047380D02*
X132714523Y-102571190D01*
X132476428Y-103047380D02*
X132476428Y-102047380D01*
X132857380Y-102047380D01*
X132952619Y-102095000D01*
X133000238Y-102142619D01*
X133047857Y-102237857D01*
X133047857Y-102380714D01*
X133000238Y-102475952D01*
X132952619Y-102523571D01*
X132857380Y-102571190D01*
X132476428Y-102571190D01*
X133428809Y-102761666D02*
X133905000Y-102761666D01*
X133333571Y-103047380D02*
X133666904Y-102047380D01*
X134000238Y-103047380D01*
X122690714Y-104411666D02*
X123166904Y-104411666D01*
X122595476Y-104697380D02*
X122928809Y-103697380D01*
X123262142Y-104697380D01*
X123595476Y-104697380D02*
X123595476Y-103697380D01*
X123833571Y-103697380D01*
X123976428Y-103745000D01*
X124071666Y-103840238D01*
X124119285Y-103935476D01*
X124166904Y-104125952D01*
X124166904Y-104268809D01*
X124119285Y-104459285D01*
X124071666Y-104554523D01*
X123976428Y-104649761D01*
X123833571Y-104697380D01*
X123595476Y-104697380D01*
X124547857Y-104411666D02*
X125024047Y-104411666D01*
X124452619Y-104697380D02*
X124785952Y-103697380D01*
X125119285Y-104697380D01*
X125452619Y-104697380D02*
X125452619Y-103697380D01*
X125833571Y-103697380D01*
X125928809Y-103745000D01*
X125976428Y-103792619D01*
X126024047Y-103887857D01*
X126024047Y-104030714D01*
X125976428Y-104125952D01*
X125928809Y-104173571D01*
X125833571Y-104221190D01*
X125452619Y-104221190D01*
X126309761Y-103697380D02*
X126881190Y-103697380D01*
X126595476Y-104697380D02*
X126595476Y-103697380D01*
X127166904Y-104411666D02*
X127643095Y-104411666D01*
X127071666Y-104697380D02*
X127405000Y-103697380D01*
X127738333Y-104697380D01*
X128405000Y-104173571D02*
X128547857Y-104221190D01*
X128595476Y-104268809D01*
X128643095Y-104364047D01*
X128643095Y-104506904D01*
X128595476Y-104602142D01*
X128547857Y-104649761D01*
X128452619Y-104697380D01*
X128071666Y-104697380D01*
X128071666Y-103697380D01*
X128405000Y-103697380D01*
X128500238Y-103745000D01*
X128547857Y-103792619D01*
X128595476Y-103887857D01*
X128595476Y-103983095D01*
X128547857Y-104078333D01*
X128500238Y-104125952D01*
X128405000Y-104173571D01*
X128071666Y-104173571D01*
X129547857Y-104697380D02*
X129071666Y-104697380D01*
X129071666Y-103697380D01*
X129881190Y-104173571D02*
X130214523Y-104173571D01*
X130357380Y-104697380D02*
X129881190Y-104697380D01*
X129881190Y-103697380D01*
X130357380Y-103697380D01*
X131547857Y-104697380D02*
X131547857Y-103697380D01*
X132119285Y-104697380D01*
X132119285Y-103697380D01*
X132785952Y-103697380D02*
X132976428Y-103697380D01*
X133071666Y-103745000D01*
X133166904Y-103840238D01*
X133214523Y-104030714D01*
X133214523Y-104364047D01*
X133166904Y-104554523D01*
X133071666Y-104649761D01*
X132976428Y-104697380D01*
X132785952Y-104697380D01*
X132690714Y-104649761D01*
X132595476Y-104554523D01*
X132547857Y-104364047D01*
X132547857Y-104030714D01*
X132595476Y-103840238D01*
X132690714Y-103745000D01*
X132785952Y-103697380D01*
X133643095Y-104697380D02*
X133643095Y-103697380D01*
X133881190Y-103697380D01*
X134024047Y-103745000D01*
X134119285Y-103840238D01*
X134166904Y-103935476D01*
X134214523Y-104125952D01*
X134214523Y-104268809D01*
X134166904Y-104459285D01*
X134119285Y-104554523D01*
X134024047Y-104649761D01*
X133881190Y-104697380D01*
X133643095Y-104697380D01*
X134643095Y-104173571D02*
X134976428Y-104173571D01*
X135119285Y-104697380D02*
X134643095Y-104697380D01*
X134643095Y-103697380D01*
X135119285Y-103697380D01*
X127714523Y-105347380D02*
X128047857Y-106347380D01*
X128381190Y-105347380D01*
X129666904Y-105347380D02*
X129762142Y-105347380D01*
X129857380Y-105395000D01*
X129905000Y-105442619D01*
X129952619Y-105537857D01*
X130000238Y-105728333D01*
X130000238Y-105966428D01*
X129952619Y-106156904D01*
X129905000Y-106252142D01*
X129857380Y-106299761D01*
X129762142Y-106347380D01*
X129666904Y-106347380D01*
X129571666Y-106299761D01*
X129524047Y-106252142D01*
X129476428Y-106156904D01*
X129428809Y-105966428D01*
X129428809Y-105728333D01*
X129476428Y-105537857D01*
X129524047Y-105442619D01*
X129571666Y-105395000D01*
X129666904Y-105347380D01*
X123762142Y-54047380D02*
X123428809Y-53571190D01*
X123190714Y-54047380D02*
X123190714Y-53047380D01*
X123571666Y-53047380D01*
X123666904Y-53095000D01*
X123714523Y-53142619D01*
X123762142Y-53237857D01*
X123762142Y-53380714D01*
X123714523Y-53475952D01*
X123666904Y-53523571D01*
X123571666Y-53571190D01*
X123190714Y-53571190D01*
X124143095Y-53761666D02*
X124619285Y-53761666D01*
X124047857Y-54047380D02*
X124381190Y-53047380D01*
X124714523Y-54047380D01*
X125047857Y-54047380D02*
X125047857Y-53047380D01*
X125619285Y-54047380D02*
X125190714Y-53475952D01*
X125619285Y-53047380D02*
X125047857Y-53618809D01*
X126476428Y-53380714D02*
X126476428Y-54047380D01*
X126238333Y-52999761D02*
X126000238Y-53714047D01*
X126619285Y-53714047D01*
X126952619Y-53142619D02*
X127000238Y-53095000D01*
X127095476Y-53047380D01*
X127333571Y-53047380D01*
X127428809Y-53095000D01*
X127476428Y-53142619D01*
X127524047Y-53237857D01*
X127524047Y-53333095D01*
X127476428Y-53475952D01*
X126905000Y-54047380D01*
X127524047Y-54047380D01*
X128143095Y-53047380D02*
X128238333Y-53047380D01*
X128333571Y-53095000D01*
X128381190Y-53142619D01*
X128428809Y-53237857D01*
X128476428Y-53428333D01*
X128476428Y-53666428D01*
X128428809Y-53856904D01*
X128381190Y-53952142D01*
X128333571Y-53999761D01*
X128238333Y-54047380D01*
X128143095Y-54047380D01*
X128047857Y-53999761D01*
X128000238Y-53952142D01*
X127952619Y-53856904D01*
X127905000Y-53666428D01*
X127905000Y-53428333D01*
X127952619Y-53237857D01*
X128000238Y-53142619D01*
X128047857Y-53095000D01*
X128143095Y-53047380D01*
X129095476Y-53047380D02*
X129190714Y-53047380D01*
X129285952Y-53095000D01*
X129333571Y-53142619D01*
X129381190Y-53237857D01*
X129428809Y-53428333D01*
X129428809Y-53666428D01*
X129381190Y-53856904D01*
X129333571Y-53952142D01*
X129285952Y-53999761D01*
X129190714Y-54047380D01*
X129095476Y-54047380D01*
X129000238Y-53999761D01*
X128952619Y-53952142D01*
X128905000Y-53856904D01*
X128857380Y-53666428D01*
X128857380Y-53428333D01*
X128905000Y-53237857D01*
X128952619Y-53142619D01*
X129000238Y-53095000D01*
X129095476Y-53047380D01*
X131095476Y-54047380D02*
X130619285Y-54047380D01*
X130619285Y-53047380D01*
X131619285Y-53047380D02*
X131809761Y-53047380D01*
X131905000Y-53095000D01*
X132000238Y-53190238D01*
X132047857Y-53380714D01*
X132047857Y-53714047D01*
X132000238Y-53904523D01*
X131905000Y-53999761D01*
X131809761Y-54047380D01*
X131619285Y-54047380D01*
X131524047Y-53999761D01*
X131428809Y-53904523D01*
X131381190Y-53714047D01*
X131381190Y-53380714D01*
X131428809Y-53190238D01*
X131524047Y-53095000D01*
X131619285Y-53047380D01*
X133047857Y-54047380D02*
X132714523Y-53571190D01*
X132476428Y-54047380D02*
X132476428Y-53047380D01*
X132857380Y-53047380D01*
X132952619Y-53095000D01*
X133000238Y-53142619D01*
X133047857Y-53237857D01*
X133047857Y-53380714D01*
X133000238Y-53475952D01*
X132952619Y-53523571D01*
X132857380Y-53571190D01*
X132476428Y-53571190D01*
X133428809Y-53761666D02*
X133905000Y-53761666D01*
X133333571Y-54047380D02*
X133666904Y-53047380D01*
X134000238Y-54047380D01*
X122690714Y-55411666D02*
X123166904Y-55411666D01*
X122595476Y-55697380D02*
X122928809Y-54697380D01*
X123262142Y-55697380D01*
X123595476Y-55697380D02*
X123595476Y-54697380D01*
X123833571Y-54697380D01*
X123976428Y-54745000D01*
X124071666Y-54840238D01*
X124119285Y-54935476D01*
X124166904Y-55125952D01*
X124166904Y-55268809D01*
X124119285Y-55459285D01*
X124071666Y-55554523D01*
X123976428Y-55649761D01*
X123833571Y-55697380D01*
X123595476Y-55697380D01*
X124547857Y-55411666D02*
X125024047Y-55411666D01*
X124452619Y-55697380D02*
X124785952Y-54697380D01*
X125119285Y-55697380D01*
X125452619Y-55697380D02*
X125452619Y-54697380D01*
X125833571Y-54697380D01*
X125928809Y-54745000D01*
X125976428Y-54792619D01*
X126024047Y-54887857D01*
X126024047Y-55030714D01*
X125976428Y-55125952D01*
X125928809Y-55173571D01*
X125833571Y-55221190D01*
X125452619Y-55221190D01*
X126309761Y-54697380D02*
X126881190Y-54697380D01*
X126595476Y-55697380D02*
X126595476Y-54697380D01*
X127166904Y-55411666D02*
X127643095Y-55411666D01*
X127071666Y-55697380D02*
X127405000Y-54697380D01*
X127738333Y-55697380D01*
X128405000Y-55173571D02*
X128547857Y-55221190D01*
X128595476Y-55268809D01*
X128643095Y-55364047D01*
X128643095Y-55506904D01*
X128595476Y-55602142D01*
X128547857Y-55649761D01*
X128452619Y-55697380D01*
X128071666Y-55697380D01*
X128071666Y-54697380D01*
X128405000Y-54697380D01*
X128500238Y-54745000D01*
X128547857Y-54792619D01*
X128595476Y-54887857D01*
X128595476Y-54983095D01*
X128547857Y-55078333D01*
X128500238Y-55125952D01*
X128405000Y-55173571D01*
X128071666Y-55173571D01*
X129547857Y-55697380D02*
X129071666Y-55697380D01*
X129071666Y-54697380D01*
X129881190Y-55173571D02*
X130214523Y-55173571D01*
X130357380Y-55697380D02*
X129881190Y-55697380D01*
X129881190Y-54697380D01*
X130357380Y-54697380D01*
X131547857Y-55697380D02*
X131547857Y-54697380D01*
X132119285Y-55697380D01*
X132119285Y-54697380D01*
X132785952Y-54697380D02*
X132976428Y-54697380D01*
X133071666Y-54745000D01*
X133166904Y-54840238D01*
X133214523Y-55030714D01*
X133214523Y-55364047D01*
X133166904Y-55554523D01*
X133071666Y-55649761D01*
X132976428Y-55697380D01*
X132785952Y-55697380D01*
X132690714Y-55649761D01*
X132595476Y-55554523D01*
X132547857Y-55364047D01*
X132547857Y-55030714D01*
X132595476Y-54840238D01*
X132690714Y-54745000D01*
X132785952Y-54697380D01*
X133643095Y-55697380D02*
X133643095Y-54697380D01*
X133881190Y-54697380D01*
X134024047Y-54745000D01*
X134119285Y-54840238D01*
X134166904Y-54935476D01*
X134214523Y-55125952D01*
X134214523Y-55268809D01*
X134166904Y-55459285D01*
X134119285Y-55554523D01*
X134024047Y-55649761D01*
X133881190Y-55697380D01*
X133643095Y-55697380D01*
X134643095Y-55173571D02*
X134976428Y-55173571D01*
X135119285Y-55697380D02*
X134643095Y-55697380D01*
X134643095Y-54697380D01*
X135119285Y-54697380D01*
X127714523Y-56347380D02*
X128047857Y-57347380D01*
X128381190Y-56347380D01*
X129666904Y-56347380D02*
X129762142Y-56347380D01*
X129857380Y-56395000D01*
X129905000Y-56442619D01*
X129952619Y-56537857D01*
X130000238Y-56728333D01*
X130000238Y-56966428D01*
X129952619Y-57156904D01*
X129905000Y-57252142D01*
X129857380Y-57299761D01*
X129762142Y-57347380D01*
X129666904Y-57347380D01*
X129571666Y-57299761D01*
X129524047Y-57252142D01*
X129476428Y-57156904D01*
X129428809Y-56966428D01*
X129428809Y-56728333D01*
X129476428Y-56537857D01*
X129524047Y-56442619D01*
X129571666Y-56395000D01*
X129666904Y-56347380D01*
X184916428Y-46345000D02*
X184916428Y-45945000D01*
X185516428Y-46345000D01*
X185516428Y-45945000D01*
X184945000Y-43573571D02*
X184916428Y-43630714D01*
X184916428Y-43716428D01*
X184945000Y-43802142D01*
X185002142Y-43859285D01*
X185059285Y-43887857D01*
X185173571Y-43916428D01*
X185259285Y-43916428D01*
X185373571Y-43887857D01*
X185430714Y-43859285D01*
X185487857Y-43802142D01*
X185516428Y-43716428D01*
X185516428Y-43659285D01*
X185487857Y-43573571D01*
X185459285Y-43545000D01*
X185259285Y-43545000D01*
X185259285Y-43659285D01*
X185516428Y-43287857D02*
X184916428Y-43287857D01*
X185516428Y-42945000D01*
X184916428Y-42945000D01*
X185516428Y-42659285D02*
X184916428Y-42659285D01*
X184916428Y-42516428D01*
X184945000Y-42430714D01*
X185002142Y-42373571D01*
X185059285Y-42345000D01*
X185173571Y-42316428D01*
X185259285Y-42316428D01*
X185373571Y-42345000D01*
X185430714Y-42373571D01*
X185487857Y-42430714D01*
X185516428Y-42516428D01*
X185516428Y-42659285D01*
X184916428Y-40316428D02*
X185516428Y-40116428D01*
X184916428Y-39916428D01*
X185459285Y-39373571D02*
X185487857Y-39402142D01*
X185516428Y-39487857D01*
X185516428Y-39545000D01*
X185487857Y-39630714D01*
X185430714Y-39687857D01*
X185373571Y-39716428D01*
X185259285Y-39745000D01*
X185173571Y-39745000D01*
X185059285Y-39716428D01*
X185002142Y-39687857D01*
X184945000Y-39630714D01*
X184916428Y-39545000D01*
X184916428Y-39487857D01*
X184945000Y-39402142D01*
X184973571Y-39373571D01*
X185459285Y-38773571D02*
X185487857Y-38802142D01*
X185516428Y-38887857D01*
X185516428Y-38945000D01*
X185487857Y-39030714D01*
X185430714Y-39087857D01*
X185373571Y-39116428D01*
X185259285Y-39145000D01*
X185173571Y-39145000D01*
X185059285Y-39116428D01*
X185002142Y-39087857D01*
X184945000Y-39030714D01*
X184916428Y-38945000D01*
X184916428Y-38887857D01*
X184945000Y-38802142D01*
X184973571Y-38773571D01*
X184916428Y-71785000D02*
X185516428Y-71642142D01*
X185087857Y-71527857D01*
X185516428Y-71413571D01*
X184916428Y-71270714D01*
X184916428Y-67899285D02*
X185516428Y-67499285D01*
X184916428Y-67499285D02*
X185516428Y-67899285D01*
X185230714Y-63956428D02*
X185516428Y-63956428D01*
X184916428Y-64156428D02*
X185230714Y-63956428D01*
X184916428Y-63756428D01*
D11*
X174620000Y-110620000D02*
X174620000Y-107960000D01*
X149160000Y-110620000D02*
X174620000Y-110620000D01*
X149160000Y-107960000D02*
X174620000Y-107960000D01*
X149160000Y-110620000D02*
X149160000Y-107960000D01*
X147890000Y-110620000D02*
X146560000Y-110620000D01*
X146560000Y-110620000D02*
X146560000Y-109290000D01*
X182136385Y-119512413D02*
G75*
G02X182260000Y-120120000I-1431385J-607587D01*
G01*
X180097258Y-118687891D02*
G75*
G02X181313000Y-118688000I607742J-1432109D01*
G01*
X179272891Y-120727742D02*
G75*
G02X179273000Y-119512000I1432109J607742D01*
G01*
X181312742Y-121552109D02*
G75*
G02X180097000Y-121552000I-607742J1432109D01*
G01*
X182260492Y-120092989D02*
G75*
G02X182137000Y-120728000I-1555492J-27011D01*
G01*
X182260000Y-116620000D02*
G75*
G03X182260000Y-116620000I-1555000J0D01*
G01*
X182260000Y-113120000D02*
G75*
G03X182260000Y-113120000I-1555000J0D01*
G01*
X182805000Y-122280000D02*
X182805000Y-110960000D01*
X177245000Y-122280000D02*
X177245000Y-110960000D01*
X184365000Y-122280000D02*
X184365000Y-110960000D01*
X177245000Y-122280000D02*
X184365000Y-122280000D01*
X177245000Y-110960000D02*
X184365000Y-110960000D01*
X182865000Y-122520000D02*
X184605000Y-122520000D01*
X184605000Y-122520000D02*
X184605000Y-121020000D01*
X182136385Y-94577413D02*
G75*
G02X182260000Y-95185000I-1431385J-607587D01*
G01*
X180097258Y-93752891D02*
G75*
G02X181313000Y-93753000I607742J-1432109D01*
G01*
X179272891Y-95792742D02*
G75*
G02X179273000Y-94577000I1432109J607742D01*
G01*
X181312742Y-96617109D02*
G75*
G02X180097000Y-96617000I-607742J1432109D01*
G01*
X182260492Y-95157989D02*
G75*
G02X182137000Y-95793000I-1555492J-27011D01*
G01*
X182260000Y-91685000D02*
G75*
G03X182260000Y-91685000I-1555000J0D01*
G01*
X182260000Y-88185000D02*
G75*
G03X182260000Y-88185000I-1555000J0D01*
G01*
X182805000Y-97345000D02*
X182805000Y-86025000D01*
X177245000Y-97345000D02*
X177245000Y-86025000D01*
X184365000Y-97345000D02*
X184365000Y-86025000D01*
X177245000Y-97345000D02*
X184365000Y-97345000D01*
X177245000Y-86025000D02*
X184365000Y-86025000D01*
X182865000Y-97585000D02*
X184605000Y-97585000D01*
X184605000Y-97585000D02*
X184605000Y-96085000D01*
X139185000Y-114100000D02*
X154985000Y-114100000D01*
X154985000Y-125300000D02*
X139185000Y-125300000D01*
X154985000Y-125300000D02*
G75*
G02X156985000Y-127300000I0J-2000000D01*
G01*
X137185000Y-127300000D02*
G75*
G02X139185000Y-125300000I2000000J0D01*
G01*
X139185000Y-114100000D02*
G75*
G02X137185000Y-112100000I0J2000000D01*
G01*
X156985000Y-112100000D02*
G75*
G02X154985000Y-114100000I-2000000J0D01*
G01*
X137185000Y-112100000D02*
X119185000Y-112100000D01*
X137185000Y-127300000D02*
X119185000Y-127300000D01*
X174985000Y-127300000D02*
X156985000Y-127300000D01*
X119185000Y-127300000D02*
X119185000Y-112100000D01*
X174985000Y-112100000D02*
X156985000Y-112100000D01*
X174985000Y-127300000D02*
X174985000Y-112100000D01*
X175705000Y-128265000D02*
X118465000Y-128265000D01*
X175705000Y-111135000D02*
X175705000Y-128265000D01*
X118465000Y-111135000D02*
X175705000Y-111135000D01*
X118465000Y-128265000D02*
X118465000Y-111135000D01*
X125775000Y-120760000D02*
X125775000Y-118760000D01*
X122775000Y-123760000D02*
X122775000Y-115760000D01*
X123775000Y-116760000D02*
X123775000Y-122760000D01*
X124775000Y-121760000D02*
X124775000Y-117760000D01*
X154915000Y-94470000D02*
X139115000Y-94470000D01*
X139115000Y-83270000D02*
X154915000Y-83270000D01*
X139115000Y-83270000D02*
G75*
G02X137115000Y-81270000I0J2000000D01*
G01*
X156915000Y-81270000D02*
G75*
G02X154915000Y-83270000I-2000000J0D01*
G01*
X154915000Y-94470000D02*
G75*
G02X156915000Y-96470000I0J-2000000D01*
G01*
X137115000Y-96470000D02*
G75*
G02X139115000Y-94470000I2000000J0D01*
G01*
X156915000Y-96470000D02*
X174915000Y-96470000D01*
X156915000Y-81270000D02*
X174915000Y-81270000D01*
X119115000Y-81270000D02*
X137115000Y-81270000D01*
X174915000Y-81270000D02*
X174915000Y-96470000D01*
X119115000Y-96470000D02*
X137115000Y-96470000D01*
X119115000Y-81270000D02*
X119115000Y-96470000D01*
X118395000Y-80305000D02*
X175635000Y-80305000D01*
X118395000Y-97435000D02*
X118395000Y-80305000D01*
X175635000Y-97435000D02*
X118395000Y-97435000D01*
X175635000Y-80305000D02*
X175635000Y-97435000D01*
X168325000Y-87810000D02*
X168325000Y-89810000D01*
X171325000Y-84810000D02*
X171325000Y-92810000D01*
X170325000Y-91810000D02*
X170325000Y-85810000D01*
X169325000Y-86810000D02*
X169325000Y-90810000D01*
X174620000Y-103000000D02*
X174620000Y-100340000D01*
X149160000Y-103000000D02*
X174620000Y-103000000D01*
X149160000Y-100340000D02*
X174620000Y-100340000D01*
X149160000Y-103000000D02*
X149160000Y-100340000D01*
X147890000Y-103000000D02*
X146560000Y-103000000D01*
X146560000Y-103000000D02*
X146560000Y-101670000D01*
X174620000Y-100460000D02*
X174620000Y-97800000D01*
X149160000Y-100460000D02*
X174620000Y-100460000D01*
X149160000Y-97800000D02*
X174620000Y-97800000D01*
X149160000Y-100460000D02*
X149160000Y-97800000D01*
X147890000Y-100460000D02*
X146560000Y-100460000D01*
X146560000Y-100460000D02*
X146560000Y-99130000D01*
X174620000Y-108080000D02*
X174620000Y-105420000D01*
X149160000Y-108080000D02*
X174620000Y-108080000D01*
X149160000Y-105420000D02*
X174620000Y-105420000D01*
X149160000Y-108080000D02*
X149160000Y-105420000D01*
X147890000Y-108080000D02*
X146560000Y-108080000D01*
X146560000Y-108080000D02*
X146560000Y-106750000D01*
X174620000Y-105540000D02*
X174620000Y-102880000D01*
X149160000Y-105540000D02*
X174620000Y-105540000D01*
X149160000Y-102880000D02*
X174620000Y-102880000D01*
X149160000Y-105540000D02*
X149160000Y-102880000D01*
X147890000Y-105540000D02*
X146560000Y-105540000D01*
X146560000Y-105540000D02*
X146560000Y-104210000D01*
X114240000Y-111925000D02*
X116900000Y-111925000D01*
X114240000Y-111865000D02*
X114240000Y-111925000D01*
X116900000Y-111865000D02*
X116900000Y-111925000D01*
X114240000Y-111865000D02*
X116900000Y-111865000D01*
X114240000Y-110595000D02*
X114240000Y-109265000D01*
X114240000Y-109265000D02*
X115570000Y-109265000D01*
X146560000Y-54000000D02*
X146560000Y-52670000D01*
X147890000Y-54000000D02*
X146560000Y-54000000D01*
X149160000Y-54000000D02*
X149160000Y-51340000D01*
X149160000Y-51340000D02*
X174620000Y-51340000D01*
X149160000Y-54000000D02*
X174620000Y-54000000D01*
X174620000Y-54000000D02*
X174620000Y-51340000D01*
X146560000Y-56540000D02*
X146560000Y-55210000D01*
X147890000Y-56540000D02*
X146560000Y-56540000D01*
X149160000Y-56540000D02*
X149160000Y-53880000D01*
X149160000Y-53880000D02*
X174620000Y-53880000D01*
X149160000Y-56540000D02*
X174620000Y-56540000D01*
X174620000Y-56540000D02*
X174620000Y-53880000D01*
X146560000Y-59080000D02*
X146560000Y-57750000D01*
X147890000Y-59080000D02*
X146560000Y-59080000D01*
X149160000Y-59080000D02*
X149160000Y-56420000D01*
X149160000Y-56420000D02*
X174620000Y-56420000D01*
X149160000Y-59080000D02*
X174620000Y-59080000D01*
X174620000Y-59080000D02*
X174620000Y-56420000D01*
X114240000Y-60265000D02*
X115570000Y-60265000D01*
X114240000Y-61595000D02*
X114240000Y-60265000D01*
X114240000Y-62865000D02*
X116900000Y-62865000D01*
X116900000Y-62865000D02*
X116900000Y-62925000D01*
X114240000Y-62865000D02*
X114240000Y-62925000D01*
X114240000Y-62925000D02*
X116900000Y-62925000D01*
X146560000Y-51460000D02*
X146560000Y-50130000D01*
X147890000Y-51460000D02*
X146560000Y-51460000D01*
X149160000Y-51460000D02*
X149160000Y-48800000D01*
X149160000Y-48800000D02*
X174620000Y-48800000D01*
X149160000Y-51460000D02*
X174620000Y-51460000D01*
X174620000Y-51460000D02*
X174620000Y-48800000D01*
X146560000Y-61620000D02*
X146560000Y-60290000D01*
X147890000Y-61620000D02*
X146560000Y-61620000D01*
X149160000Y-61620000D02*
X149160000Y-58960000D01*
X149160000Y-58960000D02*
X174620000Y-58960000D01*
X149160000Y-61620000D02*
X174620000Y-61620000D01*
X174620000Y-61620000D02*
X174620000Y-58960000D01*
X124775000Y-72760000D02*
X124775000Y-68760000D01*
X123775000Y-67760000D02*
X123775000Y-73760000D01*
X122775000Y-74760000D02*
X122775000Y-66760000D01*
X125775000Y-71760000D02*
X125775000Y-69760000D01*
X118465000Y-79265000D02*
X118465000Y-62135000D01*
X118465000Y-62135000D02*
X175705000Y-62135000D01*
X175705000Y-62135000D02*
X175705000Y-79265000D01*
X175705000Y-79265000D02*
X118465000Y-79265000D01*
X174985000Y-78300000D02*
X174985000Y-63100000D01*
X174985000Y-63100000D02*
X156985000Y-63100000D01*
X119185000Y-78300000D02*
X119185000Y-63100000D01*
X174985000Y-78300000D02*
X156985000Y-78300000D01*
X137185000Y-78300000D02*
X119185000Y-78300000D01*
X137185000Y-63100000D02*
X119185000Y-63100000D01*
X156985000Y-63100000D02*
G75*
G02X154985000Y-65100000I-2000000J0D01*
G01*
X139185000Y-65100000D02*
G75*
G02X137185000Y-63100000I0J2000000D01*
G01*
X137185000Y-78300000D02*
G75*
G02X139185000Y-76300000I2000000J0D01*
G01*
X154985000Y-76300000D02*
G75*
G02X156985000Y-78300000I0J-2000000D01*
G01*
X154985000Y-76300000D02*
X139185000Y-76300000D01*
X139185000Y-65100000D02*
X154985000Y-65100000D01*
X184605000Y-73520000D02*
X184605000Y-72020000D01*
X182865000Y-73520000D02*
X184605000Y-73520000D01*
X177245000Y-61960000D02*
X184365000Y-61960000D01*
X177245000Y-73280000D02*
X184365000Y-73280000D01*
X184365000Y-73280000D02*
X184365000Y-61960000D01*
X177245000Y-73280000D02*
X177245000Y-61960000D01*
X182805000Y-73280000D02*
X182805000Y-61960000D01*
X182260000Y-64120000D02*
G75*
G03X182260000Y-64120000I-1555000J0D01*
G01*
X182260000Y-67620000D02*
G75*
G03X182260000Y-67620000I-1555000J0D01*
G01*
X182260492Y-71092989D02*
G75*
G02X182137000Y-71728000I-1555492J-27011D01*
G01*
X181312742Y-72552109D02*
G75*
G02X180097000Y-72552000I-607742J1432109D01*
G01*
X179272891Y-71727742D02*
G75*
G02X179273000Y-70512000I1432109J607742D01*
G01*
X180097258Y-69687891D02*
G75*
G02X181313000Y-69688000I607742J-1432109D01*
G01*
X182136385Y-70512413D02*
G75*
G02X182260000Y-71120000I-1431385J-607587D01*
G01*
X184605000Y-48585000D02*
X184605000Y-47085000D01*
X182865000Y-48585000D02*
X184605000Y-48585000D01*
X177245000Y-37025000D02*
X184365000Y-37025000D01*
X177245000Y-48345000D02*
X184365000Y-48345000D01*
X184365000Y-48345000D02*
X184365000Y-37025000D01*
X177245000Y-48345000D02*
X177245000Y-37025000D01*
X182805000Y-48345000D02*
X182805000Y-37025000D01*
X182260000Y-39185000D02*
G75*
G03X182260000Y-39185000I-1555000J0D01*
G01*
X182260000Y-42685000D02*
G75*
G03X182260000Y-42685000I-1555000J0D01*
G01*
X182260492Y-46157989D02*
G75*
G02X182137000Y-46793000I-1555492J-27011D01*
G01*
X181312742Y-47617109D02*
G75*
G02X180097000Y-47617000I-607742J1432109D01*
G01*
X179272891Y-46792742D02*
G75*
G02X179273000Y-45577000I1432109J607742D01*
G01*
X180097258Y-44752891D02*
G75*
G02X181313000Y-44753000I607742J-1432109D01*
G01*
X182136385Y-45577413D02*
G75*
G02X182260000Y-46185000I-1431385J-607587D01*
G01*
X169325000Y-37810000D02*
X169325000Y-41810000D01*
X170325000Y-42810000D02*
X170325000Y-36810000D01*
X171325000Y-35810000D02*
X171325000Y-43810000D01*
X168325000Y-38810000D02*
X168325000Y-40810000D01*
X175635000Y-31305000D02*
X175635000Y-48435000D01*
X175635000Y-48435000D02*
X118395000Y-48435000D01*
X118395000Y-48435000D02*
X118395000Y-31305000D01*
X118395000Y-31305000D02*
X175635000Y-31305000D01*
X119115000Y-32270000D02*
X119115000Y-47470000D01*
X119115000Y-47470000D02*
X137115000Y-47470000D01*
X174915000Y-32270000D02*
X174915000Y-47470000D01*
X119115000Y-32270000D02*
X137115000Y-32270000D01*
X156915000Y-32270000D02*
X174915000Y-32270000D01*
X156915000Y-47470000D02*
X174915000Y-47470000D01*
X137115000Y-47470000D02*
G75*
G02X139115000Y-45470000I2000000J0D01*
G01*
X154915000Y-45470000D02*
G75*
G02X156915000Y-47470000I0J-2000000D01*
G01*
X156915000Y-32270000D02*
G75*
G02X154915000Y-34270000I-2000000J0D01*
G01*
X139115000Y-34270000D02*
G75*
G02X137115000Y-32270000I0J2000000D01*
G01*
X139115000Y-34270000D02*
X154915000Y-34270000D01*
X154915000Y-45470000D02*
X139115000Y-45470000D01*
D10*
X145012380Y-109623333D02*
X145726666Y-109623333D01*
X145869523Y-109670952D01*
X145964761Y-109766190D01*
X146012380Y-109909047D01*
X146012380Y-110004285D01*
X145012380Y-109242380D02*
X145012380Y-108623333D01*
X145393333Y-108956666D01*
X145393333Y-108813809D01*
X145440952Y-108718571D01*
X145488571Y-108670952D01*
X145583809Y-108623333D01*
X145821904Y-108623333D01*
X145917142Y-108670952D01*
X145964761Y-108718571D01*
X146012380Y-108813809D01*
X146012380Y-109099523D01*
X145964761Y-109194761D01*
X145917142Y-109242380D01*
X178522380Y-109658333D02*
X179236666Y-109658333D01*
X179379523Y-109705952D01*
X179474761Y-109801190D01*
X179522380Y-109944047D01*
X179522380Y-110039285D01*
X178617619Y-109229761D02*
X178570000Y-109182142D01*
X178522380Y-109086904D01*
X178522380Y-108848809D01*
X178570000Y-108753571D01*
X178617619Y-108705952D01*
X178712857Y-108658333D01*
X178808095Y-108658333D01*
X178950952Y-108705952D01*
X179522380Y-109277380D01*
X179522380Y-108658333D01*
X178522380Y-84893333D02*
X179236666Y-84893333D01*
X179379523Y-84940952D01*
X179474761Y-85036190D01*
X179522380Y-85179047D01*
X179522380Y-85274285D01*
X179522380Y-83893333D02*
X179522380Y-84464761D01*
X179522380Y-84179047D02*
X178522380Y-84179047D01*
X178665238Y-84274285D01*
X178760476Y-84369523D01*
X178808095Y-84464761D01*
X115419285Y-121318571D02*
X115562142Y-121366190D01*
X115609761Y-121413809D01*
X115657380Y-121509047D01*
X115657380Y-121651904D01*
X115609761Y-121747142D01*
X115562142Y-121794761D01*
X115466904Y-121842380D01*
X115085952Y-121842380D01*
X115085952Y-120842380D01*
X115419285Y-120842380D01*
X115514523Y-120890000D01*
X115562142Y-120937619D01*
X115609761Y-121032857D01*
X115609761Y-121128095D01*
X115562142Y-121223333D01*
X115514523Y-121270952D01*
X115419285Y-121318571D01*
X115085952Y-121318571D01*
X115943095Y-120842380D02*
X116514523Y-120842380D01*
X116228809Y-121842380D02*
X116228809Y-120842380D01*
X116800238Y-120937619D02*
X116847857Y-120890000D01*
X116943095Y-120842380D01*
X117181190Y-120842380D01*
X117276428Y-120890000D01*
X117324047Y-120937619D01*
X117371666Y-121032857D01*
X117371666Y-121128095D01*
X117324047Y-121270952D01*
X116752619Y-121842380D01*
X117371666Y-121842380D01*
X117334047Y-119831428D02*
X118095952Y-119831428D01*
X176104047Y-119831428D02*
X176865952Y-119831428D01*
X176485000Y-120212380D02*
X176485000Y-119450476D01*
X115419285Y-87028571D02*
X115562142Y-87076190D01*
X115609761Y-87123809D01*
X115657380Y-87219047D01*
X115657380Y-87361904D01*
X115609761Y-87457142D01*
X115562142Y-87504761D01*
X115466904Y-87552380D01*
X115085952Y-87552380D01*
X115085952Y-86552380D01*
X115419285Y-86552380D01*
X115514523Y-86600000D01*
X115562142Y-86647619D01*
X115609761Y-86742857D01*
X115609761Y-86838095D01*
X115562142Y-86933333D01*
X115514523Y-86980952D01*
X115419285Y-87028571D01*
X115085952Y-87028571D01*
X115943095Y-86552380D02*
X116514523Y-86552380D01*
X116228809Y-87552380D02*
X116228809Y-86552380D01*
X117371666Y-87552380D02*
X116800238Y-87552380D01*
X117085952Y-87552380D02*
X117085952Y-86552380D01*
X116990714Y-86695238D01*
X116895476Y-86790476D01*
X116800238Y-86838095D01*
X176004047Y-88881428D02*
X176765952Y-88881428D01*
X117234047Y-88881428D02*
X117995952Y-88881428D01*
X117615000Y-89262380D02*
X117615000Y-88500476D01*
X145012380Y-102003333D02*
X145726666Y-102003333D01*
X145869523Y-102050952D01*
X145964761Y-102146190D01*
X146012380Y-102289047D01*
X146012380Y-102384285D01*
X145440952Y-101384285D02*
X145393333Y-101479523D01*
X145345714Y-101527142D01*
X145250476Y-101574761D01*
X145202857Y-101574761D01*
X145107619Y-101527142D01*
X145060000Y-101479523D01*
X145012380Y-101384285D01*
X145012380Y-101193809D01*
X145060000Y-101098571D01*
X145107619Y-101050952D01*
X145202857Y-101003333D01*
X145250476Y-101003333D01*
X145345714Y-101050952D01*
X145393333Y-101098571D01*
X145440952Y-101193809D01*
X145440952Y-101384285D01*
X145488571Y-101479523D01*
X145536190Y-101527142D01*
X145631428Y-101574761D01*
X145821904Y-101574761D01*
X145917142Y-101527142D01*
X145964761Y-101479523D01*
X146012380Y-101384285D01*
X146012380Y-101193809D01*
X145964761Y-101098571D01*
X145917142Y-101050952D01*
X145821904Y-101003333D01*
X145631428Y-101003333D01*
X145536190Y-101050952D01*
X145488571Y-101098571D01*
X145440952Y-101193809D01*
X145012380Y-99463333D02*
X145726666Y-99463333D01*
X145869523Y-99510952D01*
X145964761Y-99606190D01*
X146012380Y-99749047D01*
X146012380Y-99844285D01*
X145345714Y-98558571D02*
X146012380Y-98558571D01*
X144964761Y-98796666D02*
X145679047Y-99034761D01*
X145679047Y-98415714D01*
X145012380Y-107083333D02*
X145726666Y-107083333D01*
X145869523Y-107130952D01*
X145964761Y-107226190D01*
X146012380Y-107369047D01*
X146012380Y-107464285D01*
X145012380Y-106178571D02*
X145012380Y-106369047D01*
X145060000Y-106464285D01*
X145107619Y-106511904D01*
X145250476Y-106607142D01*
X145440952Y-106654761D01*
X145821904Y-106654761D01*
X145917142Y-106607142D01*
X145964761Y-106559523D01*
X146012380Y-106464285D01*
X146012380Y-106273809D01*
X145964761Y-106178571D01*
X145917142Y-106130952D01*
X145821904Y-106083333D01*
X145583809Y-106083333D01*
X145488571Y-106130952D01*
X145440952Y-106178571D01*
X145393333Y-106273809D01*
X145393333Y-106464285D01*
X145440952Y-106559523D01*
X145488571Y-106607142D01*
X145583809Y-106654761D01*
X145012380Y-104543333D02*
X145726666Y-104543333D01*
X145869523Y-104590952D01*
X145964761Y-104686190D01*
X146012380Y-104829047D01*
X146012380Y-104924285D01*
X145012380Y-104162380D02*
X145012380Y-103495714D01*
X146012380Y-103924285D01*
X115236666Y-107717380D02*
X115236666Y-108431666D01*
X115189047Y-108574523D01*
X115093809Y-108669761D01*
X114950952Y-108717380D01*
X114855714Y-108717380D01*
X116189047Y-107717380D02*
X115712857Y-107717380D01*
X115665238Y-108193571D01*
X115712857Y-108145952D01*
X115808095Y-108098333D01*
X116046190Y-108098333D01*
X116141428Y-108145952D01*
X116189047Y-108193571D01*
X116236666Y-108288809D01*
X116236666Y-108526904D01*
X116189047Y-108622142D01*
X116141428Y-108669761D01*
X116046190Y-108717380D01*
X115808095Y-108717380D01*
X115712857Y-108669761D01*
X115665238Y-108622142D01*
X145012380Y-53003333D02*
X145726666Y-53003333D01*
X145869523Y-53050952D01*
X145964761Y-53146190D01*
X146012380Y-53289047D01*
X146012380Y-53384285D01*
X145440952Y-52384285D02*
X145393333Y-52479523D01*
X145345714Y-52527142D01*
X145250476Y-52574761D01*
X145202857Y-52574761D01*
X145107619Y-52527142D01*
X145060000Y-52479523D01*
X145012380Y-52384285D01*
X145012380Y-52193809D01*
X145060000Y-52098571D01*
X145107619Y-52050952D01*
X145202857Y-52003333D01*
X145250476Y-52003333D01*
X145345714Y-52050952D01*
X145393333Y-52098571D01*
X145440952Y-52193809D01*
X145440952Y-52384285D01*
X145488571Y-52479523D01*
X145536190Y-52527142D01*
X145631428Y-52574761D01*
X145821904Y-52574761D01*
X145917142Y-52527142D01*
X145964761Y-52479523D01*
X146012380Y-52384285D01*
X146012380Y-52193809D01*
X145964761Y-52098571D01*
X145917142Y-52050952D01*
X145821904Y-52003333D01*
X145631428Y-52003333D01*
X145536190Y-52050952D01*
X145488571Y-52098571D01*
X145440952Y-52193809D01*
X145012380Y-55543333D02*
X145726666Y-55543333D01*
X145869523Y-55590952D01*
X145964761Y-55686190D01*
X146012380Y-55829047D01*
X146012380Y-55924285D01*
X145012380Y-55162380D02*
X145012380Y-54495714D01*
X146012380Y-54924285D01*
X145012380Y-58083333D02*
X145726666Y-58083333D01*
X145869523Y-58130952D01*
X145964761Y-58226190D01*
X146012380Y-58369047D01*
X146012380Y-58464285D01*
X145012380Y-57178571D02*
X145012380Y-57369047D01*
X145060000Y-57464285D01*
X145107619Y-57511904D01*
X145250476Y-57607142D01*
X145440952Y-57654761D01*
X145821904Y-57654761D01*
X145917142Y-57607142D01*
X145964761Y-57559523D01*
X146012380Y-57464285D01*
X146012380Y-57273809D01*
X145964761Y-57178571D01*
X145917142Y-57130952D01*
X145821904Y-57083333D01*
X145583809Y-57083333D01*
X145488571Y-57130952D01*
X145440952Y-57178571D01*
X145393333Y-57273809D01*
X145393333Y-57464285D01*
X145440952Y-57559523D01*
X145488571Y-57607142D01*
X145583809Y-57654761D01*
X115236666Y-58717380D02*
X115236666Y-59431666D01*
X115189047Y-59574523D01*
X115093809Y-59669761D01*
X114950952Y-59717380D01*
X114855714Y-59717380D01*
X116189047Y-58717380D02*
X115712857Y-58717380D01*
X115665238Y-59193571D01*
X115712857Y-59145952D01*
X115808095Y-59098333D01*
X116046190Y-59098333D01*
X116141428Y-59145952D01*
X116189047Y-59193571D01*
X116236666Y-59288809D01*
X116236666Y-59526904D01*
X116189047Y-59622142D01*
X116141428Y-59669761D01*
X116046190Y-59717380D01*
X115808095Y-59717380D01*
X115712857Y-59669761D01*
X115665238Y-59622142D01*
X145012380Y-50463333D02*
X145726666Y-50463333D01*
X145869523Y-50510952D01*
X145964761Y-50606190D01*
X146012380Y-50749047D01*
X146012380Y-50844285D01*
X145345714Y-49558571D02*
X146012380Y-49558571D01*
X144964761Y-49796666D02*
X145679047Y-50034761D01*
X145679047Y-49415714D01*
X145012380Y-60623333D02*
X145726666Y-60623333D01*
X145869523Y-60670952D01*
X145964761Y-60766190D01*
X146012380Y-60909047D01*
X146012380Y-61004285D01*
X145012380Y-60242380D02*
X145012380Y-59623333D01*
X145393333Y-59956666D01*
X145393333Y-59813809D01*
X145440952Y-59718571D01*
X145488571Y-59670952D01*
X145583809Y-59623333D01*
X145821904Y-59623333D01*
X145917142Y-59670952D01*
X145964761Y-59718571D01*
X146012380Y-59813809D01*
X146012380Y-60099523D01*
X145964761Y-60194761D01*
X145917142Y-60242380D01*
X115419285Y-72318571D02*
X115562142Y-72366190D01*
X115609761Y-72413809D01*
X115657380Y-72509047D01*
X115657380Y-72651904D01*
X115609761Y-72747142D01*
X115562142Y-72794761D01*
X115466904Y-72842380D01*
X115085952Y-72842380D01*
X115085952Y-71842380D01*
X115419285Y-71842380D01*
X115514523Y-71890000D01*
X115562142Y-71937619D01*
X115609761Y-72032857D01*
X115609761Y-72128095D01*
X115562142Y-72223333D01*
X115514523Y-72270952D01*
X115419285Y-72318571D01*
X115085952Y-72318571D01*
X115943095Y-71842380D02*
X116514523Y-71842380D01*
X116228809Y-72842380D02*
X116228809Y-71842380D01*
X116800238Y-71937619D02*
X116847857Y-71890000D01*
X116943095Y-71842380D01*
X117181190Y-71842380D01*
X117276428Y-71890000D01*
X117324047Y-71937619D01*
X117371666Y-72032857D01*
X117371666Y-72128095D01*
X117324047Y-72270952D01*
X116752619Y-72842380D01*
X117371666Y-72842380D01*
X176104047Y-70831428D02*
X176865952Y-70831428D01*
X176485000Y-71212380D02*
X176485000Y-70450476D01*
X117334047Y-70831428D02*
X118095952Y-70831428D01*
X178522380Y-60658333D02*
X179236666Y-60658333D01*
X179379523Y-60705952D01*
X179474761Y-60801190D01*
X179522380Y-60944047D01*
X179522380Y-61039285D01*
X178617619Y-60229761D02*
X178570000Y-60182142D01*
X178522380Y-60086904D01*
X178522380Y-59848809D01*
X178570000Y-59753571D01*
X178617619Y-59705952D01*
X178712857Y-59658333D01*
X178808095Y-59658333D01*
X178950952Y-59705952D01*
X179522380Y-60277380D01*
X179522380Y-59658333D01*
X178522380Y-35893333D02*
X179236666Y-35893333D01*
X179379523Y-35940952D01*
X179474761Y-36036190D01*
X179522380Y-36179047D01*
X179522380Y-36274285D01*
X179522380Y-34893333D02*
X179522380Y-35464761D01*
X179522380Y-35179047D02*
X178522380Y-35179047D01*
X178665238Y-35274285D01*
X178760476Y-35369523D01*
X178808095Y-35464761D01*
X115419285Y-38028571D02*
X115562142Y-38076190D01*
X115609761Y-38123809D01*
X115657380Y-38219047D01*
X115657380Y-38361904D01*
X115609761Y-38457142D01*
X115562142Y-38504761D01*
X115466904Y-38552380D01*
X115085952Y-38552380D01*
X115085952Y-37552380D01*
X115419285Y-37552380D01*
X115514523Y-37600000D01*
X115562142Y-37647619D01*
X115609761Y-37742857D01*
X115609761Y-37838095D01*
X115562142Y-37933333D01*
X115514523Y-37980952D01*
X115419285Y-38028571D01*
X115085952Y-38028571D01*
X115943095Y-37552380D02*
X116514523Y-37552380D01*
X116228809Y-38552380D02*
X116228809Y-37552380D01*
X117371666Y-38552380D02*
X116800238Y-38552380D01*
X117085952Y-38552380D02*
X117085952Y-37552380D01*
X116990714Y-37695238D01*
X116895476Y-37790476D01*
X116800238Y-37838095D01*
X117234047Y-39881428D02*
X117995952Y-39881428D01*
X117615000Y-40262380D02*
X117615000Y-39500476D01*
X176004047Y-39881428D02*
X176765952Y-39881428D01*
%LPC*%
D12*
X147890000Y-109290000D03*
D13*
X150430000Y-109290000D03*
X152970000Y-109290000D03*
X155510000Y-109290000D03*
X158050000Y-109290000D03*
X160590000Y-109290000D03*
X163130000Y-109290000D03*
X165670000Y-109290000D03*
X168210000Y-109290000D03*
X170750000Y-109290000D03*
X173290000Y-109290000D03*
D14*
X180705000Y-120120000D03*
D15*
X180705000Y-116620000D03*
X180705000Y-113120000D03*
D16*
X123295000Y-124285000D03*
D14*
X180705000Y-95185000D03*
D15*
X180705000Y-91685000D03*
X180705000Y-88185000D03*
D17*
X170335000Y-125695000D03*
X123855000Y-113705000D03*
D18*
X121095000Y-119700000D03*
X173085000Y-119700000D03*
D16*
X173295000Y-84285000D03*
X116295000Y-104285000D03*
X180295000Y-104285000D03*
D17*
X123765000Y-82875000D03*
X170245000Y-94865000D03*
D18*
X173005000Y-88870000D03*
X121015000Y-88870000D03*
D12*
X147890000Y-101670000D03*
D13*
X150430000Y-101670000D03*
X152970000Y-101670000D03*
X155510000Y-101670000D03*
X158050000Y-101670000D03*
X160590000Y-101670000D03*
X163130000Y-101670000D03*
X165670000Y-101670000D03*
X168210000Y-101670000D03*
X170750000Y-101670000D03*
X173290000Y-101670000D03*
D12*
X147890000Y-99130000D03*
D13*
X150430000Y-99130000D03*
X152970000Y-99130000D03*
X155510000Y-99130000D03*
X158050000Y-99130000D03*
X160590000Y-99130000D03*
X163130000Y-99130000D03*
X165670000Y-99130000D03*
X168210000Y-99130000D03*
X170750000Y-99130000D03*
X173290000Y-99130000D03*
D12*
X147890000Y-106750000D03*
D13*
X150430000Y-106750000D03*
X152970000Y-106750000D03*
X155510000Y-106750000D03*
X158050000Y-106750000D03*
X160590000Y-106750000D03*
X163130000Y-106750000D03*
X165670000Y-106750000D03*
X168210000Y-106750000D03*
X170750000Y-106750000D03*
X173290000Y-106750000D03*
D12*
X147890000Y-104210000D03*
D13*
X150430000Y-104210000D03*
X152970000Y-104210000D03*
X155510000Y-104210000D03*
X158050000Y-104210000D03*
X160590000Y-104210000D03*
X163130000Y-104210000D03*
X165670000Y-104210000D03*
X168210000Y-104210000D03*
X170750000Y-104210000D03*
X173290000Y-104210000D03*
D12*
X115570000Y-110595000D03*
D13*
X173290000Y-52670000D03*
X170750000Y-52670000D03*
X168210000Y-52670000D03*
X165670000Y-52670000D03*
X163130000Y-52670000D03*
X160590000Y-52670000D03*
X158050000Y-52670000D03*
X155510000Y-52670000D03*
X152970000Y-52670000D03*
X150430000Y-52670000D03*
D12*
X147890000Y-52670000D03*
D13*
X173290000Y-55210000D03*
X170750000Y-55210000D03*
X168210000Y-55210000D03*
X165670000Y-55210000D03*
X163130000Y-55210000D03*
X160590000Y-55210000D03*
X158050000Y-55210000D03*
X155510000Y-55210000D03*
X152970000Y-55210000D03*
X150430000Y-55210000D03*
D12*
X147890000Y-55210000D03*
D13*
X173290000Y-57750000D03*
X170750000Y-57750000D03*
X168210000Y-57750000D03*
X165670000Y-57750000D03*
X163130000Y-57750000D03*
X160590000Y-57750000D03*
X158050000Y-57750000D03*
X155510000Y-57750000D03*
X152970000Y-57750000D03*
X150430000Y-57750000D03*
D12*
X147890000Y-57750000D03*
X115570000Y-61595000D03*
D13*
X173290000Y-50130000D03*
X170750000Y-50130000D03*
X168210000Y-50130000D03*
X165670000Y-50130000D03*
X163130000Y-50130000D03*
X160590000Y-50130000D03*
X158050000Y-50130000D03*
X155510000Y-50130000D03*
X152970000Y-50130000D03*
X150430000Y-50130000D03*
D12*
X147890000Y-50130000D03*
D13*
X173290000Y-60290000D03*
X170750000Y-60290000D03*
X168210000Y-60290000D03*
X165670000Y-60290000D03*
X163130000Y-60290000D03*
X160590000Y-60290000D03*
X158050000Y-60290000D03*
X155510000Y-60290000D03*
X152970000Y-60290000D03*
X150430000Y-60290000D03*
D12*
X147890000Y-60290000D03*
D18*
X173085000Y-70700000D03*
X121095000Y-70700000D03*
D17*
X123855000Y-64705000D03*
X170335000Y-76695000D03*
D15*
X180705000Y-64120000D03*
X180705000Y-67620000D03*
D14*
X180705000Y-71120000D03*
D15*
X180705000Y-39185000D03*
X180705000Y-42685000D03*
D14*
X180705000Y-46185000D03*
D18*
X121015000Y-39870000D03*
X173005000Y-39870000D03*
D17*
X170245000Y-45865000D03*
X123765000Y-33875000D03*
D16*
X116295000Y-55285000D03*
X123295000Y-75285000D03*
X173295000Y-35285000D03*
X180295000Y-55285000D03*
M02*
