G04 #@! TF.GenerationSoftware,KiCad,Pcbnew,5.1.5-52549c5~86~ubuntu18.04.1*
G04 #@! TF.CreationDate,2020-07-25T12:46:57-05:00*
G04 #@! TF.ProjectId,RAK4200_LORA_ADAPTABLE_NODE,52414b34-3230-4305-9f4c-4f52415f4144,rev?*
G04 #@! TF.SameCoordinates,Original*
G04 #@! TF.FileFunction,Copper,L2,Bot*
G04 #@! TF.FilePolarity,Positive*
%FSLAX46Y46*%
G04 Gerber Fmt 4.6, Leading zero omitted, Abs format (unit mm)*
G04 Created by KiCad (PCBNEW 5.1.5-52549c5~86~ubuntu18.04.1) date 2020-07-25 12:46:57*
%MOMM*%
%LPD*%
G04 APERTURE LIST*
%ADD10O,1.700000X1.700000*%
%ADD11C,1.700000*%
%ADD12C,2.000000*%
%ADD13C,0.100000*%
%ADD14R,1.000000X1.500000*%
%ADD15C,2.400000*%
%ADD16R,2.400000X2.400000*%
%ADD17R,0.700000X1.900000*%
%ADD18C,0.800000*%
%ADD19C,0.500000*%
G04 APERTURE END LIST*
D10*
X162495000Y-121885000D03*
X159955000Y-121885000D03*
X157415000Y-121885000D03*
X154875000Y-121885000D03*
X152335000Y-121885000D03*
X149795000Y-121885000D03*
X147255000Y-121885000D03*
X144715000Y-121885000D03*
X142175000Y-121885000D03*
X139635000Y-121885000D03*
D11*
X137095000Y-121885000D03*
D10*
X162495000Y-124425000D03*
X159955000Y-124425000D03*
X157415000Y-124425000D03*
X154875000Y-124425000D03*
X152335000Y-124425000D03*
X149795000Y-124425000D03*
X147255000Y-124425000D03*
X144715000Y-124425000D03*
X142175000Y-124425000D03*
X139635000Y-124425000D03*
D11*
X137095000Y-124425000D03*
D10*
X162495000Y-126965000D03*
X159955000Y-126965000D03*
X157415000Y-126965000D03*
X154875000Y-126965000D03*
X152335000Y-126965000D03*
X149795000Y-126965000D03*
X147255000Y-126965000D03*
X144715000Y-126965000D03*
X142175000Y-126965000D03*
X139635000Y-126965000D03*
D11*
X137095000Y-126965000D03*
X104775000Y-130810000D03*
D10*
X162495000Y-119345000D03*
X159955000Y-119345000D03*
X157415000Y-119345000D03*
X154875000Y-119345000D03*
X152335000Y-119345000D03*
X149795000Y-119345000D03*
X147255000Y-119345000D03*
X144715000Y-119345000D03*
X142175000Y-119345000D03*
X139635000Y-119345000D03*
D11*
X137095000Y-119345000D03*
D10*
X162495000Y-129505000D03*
X159955000Y-129505000D03*
X157415000Y-129505000D03*
X154875000Y-129505000D03*
X152335000Y-129505000D03*
X149795000Y-129505000D03*
X147255000Y-129505000D03*
X144715000Y-129505000D03*
X142175000Y-129505000D03*
X139635000Y-129505000D03*
D11*
X137095000Y-129505000D03*
D12*
X162290000Y-139915000D03*
X110300000Y-139915000D03*
G04 #@! TA.AperFunction,SMDPad,CuDef*
D13*
G36*
X109205000Y-130289398D02*
G01*
X109180466Y-130289398D01*
X109131635Y-130284588D01*
X109083510Y-130275016D01*
X109036555Y-130260772D01*
X108991222Y-130241995D01*
X108947949Y-130218864D01*
X108907150Y-130191604D01*
X108869221Y-130160476D01*
X108834524Y-130125779D01*
X108803396Y-130087850D01*
X108776136Y-130047051D01*
X108753005Y-130003778D01*
X108734228Y-129958445D01*
X108719984Y-129911490D01*
X108710412Y-129863365D01*
X108705602Y-129814534D01*
X108705602Y-129790000D01*
X108705000Y-129790000D01*
X108705000Y-129290000D01*
X108705602Y-129290000D01*
X108705602Y-129265466D01*
X108710412Y-129216635D01*
X108719984Y-129168510D01*
X108734228Y-129121555D01*
X108753005Y-129076222D01*
X108776136Y-129032949D01*
X108803396Y-128992150D01*
X108834524Y-128954221D01*
X108869221Y-128919524D01*
X108907150Y-128888396D01*
X108947949Y-128861136D01*
X108991222Y-128838005D01*
X109036555Y-128819228D01*
X109083510Y-128804984D01*
X109131635Y-128795412D01*
X109180466Y-128790602D01*
X109205000Y-128790602D01*
X109205000Y-128790000D01*
X109705000Y-128790000D01*
X109705000Y-130290000D01*
X109205000Y-130290000D01*
X109205000Y-130289398D01*
G37*
G04 #@! TD.AperFunction*
G04 #@! TA.AperFunction,SMDPad,CuDef*
G36*
X110005000Y-128790000D02*
G01*
X110505000Y-128790000D01*
X110505000Y-128790602D01*
X110529534Y-128790602D01*
X110578365Y-128795412D01*
X110626490Y-128804984D01*
X110673445Y-128819228D01*
X110718778Y-128838005D01*
X110762051Y-128861136D01*
X110802850Y-128888396D01*
X110840779Y-128919524D01*
X110875476Y-128954221D01*
X110906604Y-128992150D01*
X110933864Y-129032949D01*
X110956995Y-129076222D01*
X110975772Y-129121555D01*
X110990016Y-129168510D01*
X110999588Y-129216635D01*
X111004398Y-129265466D01*
X111004398Y-129290000D01*
X111005000Y-129290000D01*
X111005000Y-129790000D01*
X111004398Y-129790000D01*
X111004398Y-129814534D01*
X110999588Y-129863365D01*
X110990016Y-129911490D01*
X110975772Y-129958445D01*
X110956995Y-130003778D01*
X110933864Y-130047051D01*
X110906604Y-130087850D01*
X110875476Y-130125779D01*
X110840779Y-130160476D01*
X110802850Y-130191604D01*
X110762051Y-130218864D01*
X110718778Y-130241995D01*
X110673445Y-130260772D01*
X110626490Y-130275016D01*
X110578365Y-130284588D01*
X110529534Y-130289398D01*
X110505000Y-130289398D01*
X110505000Y-130290000D01*
X110005000Y-130290000D01*
X110005000Y-128790000D01*
G37*
G04 #@! TD.AperFunction*
D14*
X132080000Y-102870000D03*
G04 #@! TA.AperFunction,SMDPad,CuDef*
D13*
G36*
X133380000Y-102120602D02*
G01*
X133404534Y-102120602D01*
X133453365Y-102125412D01*
X133501490Y-102134984D01*
X133548445Y-102149228D01*
X133593778Y-102168005D01*
X133637051Y-102191136D01*
X133677850Y-102218396D01*
X133715779Y-102249524D01*
X133750476Y-102284221D01*
X133781604Y-102322150D01*
X133808864Y-102362949D01*
X133831995Y-102406222D01*
X133850772Y-102451555D01*
X133865016Y-102498510D01*
X133874588Y-102546635D01*
X133879398Y-102595466D01*
X133879398Y-102620000D01*
X133880000Y-102620000D01*
X133880000Y-103120000D01*
X133879398Y-103120000D01*
X133879398Y-103144534D01*
X133874588Y-103193365D01*
X133865016Y-103241490D01*
X133850772Y-103288445D01*
X133831995Y-103333778D01*
X133808864Y-103377051D01*
X133781604Y-103417850D01*
X133750476Y-103455779D01*
X133715779Y-103490476D01*
X133677850Y-103521604D01*
X133637051Y-103548864D01*
X133593778Y-103571995D01*
X133548445Y-103590772D01*
X133501490Y-103605016D01*
X133453365Y-103614588D01*
X133404534Y-103619398D01*
X133380000Y-103619398D01*
X133380000Y-103620000D01*
X132830000Y-103620000D01*
X132830000Y-102120000D01*
X133380000Y-102120000D01*
X133380000Y-102120602D01*
G37*
G04 #@! TD.AperFunction*
G04 #@! TA.AperFunction,SMDPad,CuDef*
G36*
X131330000Y-103620000D02*
G01*
X130780000Y-103620000D01*
X130780000Y-103619398D01*
X130755466Y-103619398D01*
X130706635Y-103614588D01*
X130658510Y-103605016D01*
X130611555Y-103590772D01*
X130566222Y-103571995D01*
X130522949Y-103548864D01*
X130482150Y-103521604D01*
X130444221Y-103490476D01*
X130409524Y-103455779D01*
X130378396Y-103417850D01*
X130351136Y-103377051D01*
X130328005Y-103333778D01*
X130309228Y-103288445D01*
X130294984Y-103241490D01*
X130285412Y-103193365D01*
X130280602Y-103144534D01*
X130280602Y-103120000D01*
X130280000Y-103120000D01*
X130280000Y-102620000D01*
X130280602Y-102620000D01*
X130280602Y-102595466D01*
X130285412Y-102546635D01*
X130294984Y-102498510D01*
X130309228Y-102451555D01*
X130328005Y-102406222D01*
X130351136Y-102362949D01*
X130378396Y-102322150D01*
X130409524Y-102284221D01*
X130444221Y-102249524D01*
X130482150Y-102218396D01*
X130522949Y-102191136D01*
X130566222Y-102168005D01*
X130611555Y-102149228D01*
X130658510Y-102134984D01*
X130706635Y-102125412D01*
X130755466Y-102120602D01*
X130780000Y-102120602D01*
X130780000Y-102120000D01*
X131330000Y-102120000D01*
X131330000Y-103620000D01*
G37*
G04 #@! TD.AperFunction*
D15*
X169910000Y-133335000D03*
X169910000Y-136835000D03*
D16*
X169910000Y-140335000D03*
D15*
X169910000Y-108400000D03*
X169910000Y-111900000D03*
D16*
X169910000Y-115400000D03*
D12*
X110220000Y-109085000D03*
X162210000Y-109085000D03*
D17*
X115310000Y-131850000D03*
X116310000Y-131850000D03*
X117310000Y-131850000D03*
X118310000Y-131850000D03*
X119310000Y-131850000D03*
X120310000Y-131850000D03*
X121310000Y-131850000D03*
X122310000Y-131850000D03*
X123310000Y-131850000D03*
X124310000Y-131850000D03*
X125310000Y-131850000D03*
X126310000Y-131850000D03*
X126310000Y-117150000D03*
X125310000Y-117150000D03*
X124310000Y-117150000D03*
X123310000Y-117150000D03*
X122310000Y-117150000D03*
X117310000Y-117150000D03*
X116310000Y-117150000D03*
X115310000Y-117150000D03*
D18*
X151765000Y-107315000D03*
X144715000Y-113600000D03*
X132080000Y-104775000D03*
X130810000Y-112395000D03*
D19*
X111895000Y-109085000D02*
X110220000Y-109085000D01*
X130780000Y-102870000D02*
X118110000Y-102870000D01*
X118110000Y-102870000D02*
X111895000Y-109085000D01*
X162210000Y-109085000D02*
X150360000Y-109085000D01*
X144145000Y-102870000D02*
X133380000Y-102870000D01*
X150360000Y-109085000D02*
X144145000Y-102870000D01*
X125310000Y-117150000D02*
X125310000Y-119165000D01*
X125310000Y-119165000D02*
X124460000Y-120015000D01*
X116310000Y-118850000D02*
X116310000Y-117150000D01*
X117475000Y-120015000D02*
X116310000Y-118850000D01*
X116310000Y-131850000D02*
X116310000Y-124990000D01*
X119380000Y-121920000D02*
X119380000Y-120015000D01*
X116310000Y-124990000D02*
X119380000Y-121920000D01*
X124460000Y-120015000D02*
X119380000Y-120015000D01*
X119380000Y-120015000D02*
X117475000Y-120015000D01*
X115310000Y-118600000D02*
X115310000Y-117150000D01*
X115560000Y-118850000D02*
X115310000Y-118600000D01*
X116310000Y-118850000D02*
X115560000Y-118850000D01*
X110300000Y-139915000D02*
X111714213Y-139915000D01*
X116310000Y-135319213D02*
X116310000Y-131850000D01*
X111714213Y-139915000D02*
X116310000Y-135319213D01*
X144715000Y-113600000D02*
X144715000Y-119345000D01*
X142240000Y-111125000D02*
X144715000Y-113600000D01*
X125310000Y-117150000D02*
X125310000Y-112815000D01*
X127000000Y-111125000D02*
X142240000Y-111125000D01*
X125310000Y-112815000D02*
X127000000Y-111125000D01*
X169910000Y-111900000D02*
X165325000Y-107315000D01*
X165325000Y-107315000D02*
X151765000Y-107315000D01*
X142175000Y-113600000D02*
X142175000Y-119345000D01*
X140970000Y-112395000D02*
X142175000Y-113600000D01*
X126310000Y-117150000D02*
X126310000Y-113720000D01*
X126310000Y-113720000D02*
X127635000Y-112395000D01*
X132080000Y-102870000D02*
X132080000Y-104775000D01*
X127635000Y-112395000D02*
X130810000Y-112395000D01*
X130810000Y-112395000D02*
X140970000Y-112395000D01*
X132080000Y-101620000D02*
X132715000Y-100985000D01*
X132080000Y-102870000D02*
X132080000Y-101620000D01*
X132715000Y-100985000D02*
X165715000Y-100985000D01*
X169910000Y-105180000D02*
X169910000Y-108400000D01*
X165715000Y-100985000D02*
X169910000Y-105180000D01*
X162495000Y-119345000D02*
X167675000Y-119345000D01*
X169910000Y-117110000D02*
X169910000Y-115400000D01*
X167675000Y-119345000D02*
X169910000Y-117110000D01*
X167777056Y-129505000D02*
X162495000Y-129505000D01*
X169910000Y-133335000D02*
X169910000Y-131637944D01*
X169910000Y-131637944D02*
X167777056Y-129505000D01*
X159955000Y-129505000D02*
X159955000Y-132015000D01*
X159955000Y-132015000D02*
X163830000Y-135890000D01*
X163830000Y-135890000D02*
X166370000Y-135890000D01*
X167315000Y-136835000D02*
X169910000Y-136835000D01*
X166370000Y-135890000D02*
X167315000Y-136835000D01*
X157415000Y-129505000D02*
X157415000Y-132650000D01*
X157415000Y-132650000D02*
X161925000Y-137160000D01*
X161925000Y-137160000D02*
X164465000Y-137160000D01*
X167640000Y-140335000D02*
X169910000Y-140335000D01*
X164465000Y-137160000D02*
X167640000Y-140335000D01*
X112150000Y-129540000D02*
X110505000Y-129540000D01*
X115310000Y-131850000D02*
X114460000Y-131850000D01*
X114460000Y-131850000D02*
X112150000Y-129540000D01*
X117310000Y-142075000D02*
X117310000Y-131850000D01*
X121920000Y-146685000D02*
X117310000Y-142075000D01*
X154875000Y-129505000D02*
X154875000Y-134050000D01*
X142240000Y-146685000D02*
X121920000Y-146685000D01*
X154875000Y-134050000D02*
X142240000Y-146685000D01*
X118310000Y-141170000D02*
X118310000Y-131850000D01*
X122555000Y-145415000D02*
X118310000Y-141170000D01*
X152335000Y-129505000D02*
X152335000Y-133415000D01*
X140335000Y-145415000D02*
X122555000Y-145415000D01*
X152335000Y-133415000D02*
X140335000Y-145415000D01*
X123190000Y-144145000D02*
X119310000Y-140265000D01*
X119310000Y-140265000D02*
X119310000Y-131850000D01*
X139065000Y-144145000D02*
X123190000Y-144145000D01*
X149795000Y-129505000D02*
X149795000Y-133415000D01*
X149795000Y-133415000D02*
X139065000Y-144145000D01*
X120310000Y-139360000D02*
X120310000Y-131850000D01*
X123825000Y-142875000D02*
X120310000Y-139360000D01*
X137795000Y-142875000D02*
X123825000Y-142875000D01*
X147255000Y-129505000D02*
X147255000Y-133415000D01*
X147255000Y-133415000D02*
X137795000Y-142875000D01*
X124460000Y-141605000D02*
X121310000Y-138455000D01*
X136525000Y-141605000D02*
X124460000Y-141605000D01*
X121310000Y-138455000D02*
X121310000Y-131850000D01*
X144715000Y-129505000D02*
X144715000Y-133415000D01*
X144715000Y-133415000D02*
X136525000Y-141605000D01*
X122310000Y-137550000D02*
X122310000Y-131850000D01*
X125095000Y-140335000D02*
X122310000Y-137550000D01*
X142175000Y-129505000D02*
X142175000Y-133415000D01*
X135255000Y-140335000D02*
X125095000Y-140335000D01*
X142175000Y-133415000D02*
X135255000Y-140335000D01*
X123310000Y-136645000D02*
X123310000Y-131850000D01*
X134620000Y-139065000D02*
X125730000Y-139065000D01*
X125730000Y-139065000D02*
X123310000Y-136645000D01*
X139635000Y-129505000D02*
X139635000Y-134050000D01*
X139635000Y-134050000D02*
X134620000Y-139065000D01*
X124310000Y-135740000D02*
X124310000Y-131850000D01*
X126365000Y-137795000D02*
X124310000Y-135740000D01*
X133350000Y-137795000D02*
X126365000Y-137795000D01*
X137095000Y-129505000D02*
X137095000Y-134050000D01*
X137095000Y-134050000D02*
X133350000Y-137795000D01*
X154875000Y-116140000D02*
X154875000Y-119345000D01*
X121920000Y-106045000D02*
X144780000Y-106045000D01*
X144780000Y-106045000D02*
X154875000Y-116140000D01*
X117310000Y-117150000D02*
X117310000Y-110655000D01*
X117310000Y-110655000D02*
X121920000Y-106045000D01*
X125095000Y-107315000D02*
X122310000Y-110100000D01*
X144145000Y-107315000D02*
X125095000Y-107315000D01*
X152335000Y-119345000D02*
X152335000Y-115505000D01*
X122310000Y-110100000D02*
X122310000Y-117150000D01*
X152335000Y-115505000D02*
X144145000Y-107315000D01*
X123310000Y-111005000D02*
X123310000Y-117150000D01*
X125730000Y-108585000D02*
X123310000Y-111005000D01*
X143510000Y-108585000D02*
X125730000Y-108585000D01*
X149795000Y-119345000D02*
X149795000Y-114870000D01*
X149795000Y-114870000D02*
X143510000Y-108585000D01*
X124310000Y-111910000D02*
X124310000Y-117150000D01*
X126365000Y-109855000D02*
X124310000Y-111910000D01*
X142875000Y-109855000D02*
X126365000Y-109855000D01*
X147255000Y-119345000D02*
X147255000Y-114235000D01*
X147255000Y-114235000D02*
X142875000Y-109855000D01*
X106045000Y-129540000D02*
X104775000Y-130810000D01*
X109205000Y-129540000D02*
X106045000Y-129540000D01*
X139635000Y-116775000D02*
X139635000Y-119345000D01*
X137795000Y-114935000D02*
X139635000Y-116775000D01*
X126310000Y-133300000D02*
X127630000Y-134620000D01*
X133985000Y-114935000D02*
X137795000Y-114935000D01*
X126310000Y-131850000D02*
X126310000Y-133300000D01*
X132080000Y-132080000D02*
X132080000Y-116840000D01*
X127630000Y-134620000D02*
X129540000Y-134620000D01*
X132080000Y-116840000D02*
X133985000Y-114935000D01*
X129540000Y-134620000D02*
X132080000Y-132080000D01*
X125310000Y-131850000D02*
X125310000Y-134835000D01*
X125310000Y-134835000D02*
X127000000Y-136525000D01*
X127000000Y-136525000D02*
X129540000Y-136525000D01*
X129540000Y-136525000D02*
X133350000Y-132715000D01*
X133350000Y-132715000D02*
X133350000Y-117475000D01*
X133350000Y-117475000D02*
X134620000Y-116205000D01*
X134620000Y-116205000D02*
X136525000Y-116205000D01*
X137095000Y-116775000D02*
X137095000Y-119345000D01*
X136525000Y-116205000D02*
X137095000Y-116775000D01*
M02*
